solid arm_link_2
  facet normal 0.00000000 0.00000000 -1.00000000
    outer loop
      vertex -0.00350000 -0.00350000 -0.05000000
      vertex 0.00350000 0.00350000 -0.05000000
      vertex 0.00350000 -0.00350000 -0.05000000
    endloop
  endfacet
  facet normal 0.00000000 0.00000000 -1.00000000
    outer loop
      vertex -0.00350000 -0.00350000 -0.05000000
      vertex -0.00350000 0.00350000 -0.05000000
      vertex 0.00350000 0.00350000 -0.05000000
    endloop
  endfacet
  facet normal 0.00000000 0.00000000 1.00000000
    outer loop
      vertex -0.00350000 -0.00350000 0.05000000
      vertex 0.00350000 -0.00350000 0.05000000
      vertex 0.00350000 0.00350000 0.05000000
    endloop
  endfacet
  facet normal 0.00000000 0.00000000 1.00000000
    outer loop
      vertex -0.00350000 -0.00350000 0.05000000
      vertex 0.00350000 0.00350000 0.05000000
      vertex -0.00350000 0.00350000 0.05000000
    endloop
  endfacet
  facet normal 0.00000000 -1.00000000 0.00000000
    outer loop
      vertex -0.00350000 -0.00350000 -0.05000000
      vertex 0.00350000 -0.00350000 -0.05000000
      vertex 0.00350000 -0.00350000 0.05000000
    endloop
  endfacet
  facet normal 0.00000000 -1.00000000 0.00000000
    outer loop
      vertex -0.00350000 -0.00350000 -0.05000000
      vertex 0.00350000 -0.00350000 0.05000000
      vertex -0.00350000 -0.00350000 0.05000000
    endloop
  endfacet
  facet normal 1.00000000 0.00000000 0.00000000
    outer loop
      vertex 0.00350000 -0.00350000 -0.05000000
      vertex 0.00350000 0.00350000 -0.05000000
      vertex 0.00350000 0.00350000 0.05000000
    endloop
  endfacet
  facet normal 1.00000000 0.00000000 0.00000000
    outer loop
      vertex 0.00350000 -0.00350000 -0.05000000
      vertex 0.00350000 0.00350000 0.05000000
      vertex 0.00350000 -0.00350000 0.05000000
    endloop
  endfacet
  facet normal 0.00000000 1.00000000 0.00000000
    outer loop
      vertex 0.00350000 0.00350000 -0.05000000
      vertex -0.00350000 0.00350000 -0.05000000
      vertex -0.00350000 0.00350000 0.05000000
    endloop
  endfacet
  facet normal 0.00000000 1.00000000 -0.00000000
    outer loop
      vertex 0.00350000 0.00350000 -0.05000000
      vertex -0.00350000 0.00350000 0.05000000
      vertex 0.00350000 0.00350000 0.05000000
    endloop
  endfacet
  facet normal -1.00000000 0.00000000 0.00000000
    outer loop
      vertex -0.00350000 0.00350000 -0.05000000
      vertex -0.00350000 -0.00350000 -0.05000000
      vertex -0.00350000 -0.00350000 0.05000000
    endloop
  endfacet
  facet normal -1.00000000 0.00000000 0.00000000
    outer loop
      vertex -0.00350000 0.00350000 -0.05000000
      vertex -0.00350000 -0.00350000 0.05000000
      vertex -0.00350000 0.00350000 0.05000000
    endloop
  endfacet
endsolid arm_link_2
