solid arm_link_1
  facet normal 0.00000000 0.00000000 -1.00000000
    outer loop
      vertex -0.00400000 -0.00400000 -0.06000000
      vertex 0.00400000 0.00400000 -0.06000000
      vertex 0.00400000 -0.00400000 -0.06000000
    endloop
  endfacet
  facet normal 0.00000000 0.00000000 -1.00000000
    outer loop
      vertex -0.00400000 -0.00400000 -0.06000000
      vertex -0.00400000 0.00400000 -0.06000000
      vertex 0.00400000 0.00400000 -0.06000000
    endloop
  endfacet
  facet normal 0.00000000 0.00000000 1.00000000
    outer loop
      vertex -0.00400000 -0.00400000 0.06000000
      vertex 0.00400000 -0.00400000 0.06000000
      vertex 0.00400000 0.00400000 0.06000000
    endloop
  endfacet
  facet normal 0.00000000 0.00000000 1.00000000
    outer loop
      vertex -0.00400000 -0.00400000 0.06000000
      vertex 0.00400000 0.00400000 0.06000000
      vertex -0.00400000 0.00400000 0.06000000
    endloop
  endfacet
  facet normal 0.00000000 -1.00000000 0.00000000
    outer loop
      vertex -0.00400000 -0.00400000 -0.06000000
      vertex 0.00400000 -0.00400000 -0.06000000
      vertex 0.00400000 -0.00400000 0.06000000
    endloop
  endfacet
  facet normal 0.00000000 -1.00000000 0.00000000
    outer loop
      vertex -0.00400000 -0.00400000 -0.06000000
      vertex 0.00400000 -0.00400000 0.06000000
      vertex -0.00400000 -0.00400000 0.06000000
    endloop
  endfacet
  facet normal 1.00000000 0.00000000 0.00000000
    outer loop
      vertex 0.00400000 -0.00400000 -0.06000000
      vertex 0.00400000 0.00400000 -0.06000000
      vertex 0.00400000 0.00400000 0.06000000
    endloop
  endfacet
  facet normal 1.00000000 0.00000000 0.00000000
    outer loop
      vertex 0.00400000 -0.00400000 -0.06000000
      vertex 0.00400000 0.00400000 0.06000000
      vertex 0.00400000 -0.00400000 0.06000000
    endloop
  endfacet
  facet normal 0.00000000 1.00000000 0.00000000
    outer loop
      vertex 0.00400000 0.00400000 -0.06000000
      vertex -0.00400000 0.00400000 -0.06000000
      vertex -0.00400000 0.00400000 0.06000000
    endloop
  endfacet
  facet normal 0.00000000 1.00000000 -0.00000000
    outer loop
      vertex 0.00400000 0.00400000 -0.06000000
      vertex -0.00400000 0.00400000 0.06000000
      vertex 0.00400000 0.00400000 0.06000000
    endloop
  endfacet
  facet normal -1.00000000 0.00000000 0.00000000
    outer loop
      vertex -0.00400000 0.00400000 -0.06000000
      vertex -0.00400000 -0.00400000 -0.06000000
      vertex -0.00400000 -0.00400000 0.06000000
    endloop
  endfacet
  facet normal -1.00000000 0.00000000 0.00000000
    outer loop
      vertex -0.00400000 0.00400000 -0.06000000
      vertex -0.00400000 -0.00400000 0.06000000
      vertex -0.00400000 0.00400000 0.06000000
    endloop
  endfacet
endsolid arm_link_1
