solid end_effector
  facet normal 0.00000000 0.00000000 -1.00000000
    outer loop
      vertex -0.01000000 -0.01000000 -0.01000000
      vertex 0.01000000 0.01000000 -0.01000000
      vertex 0.01000000 -0.01000000 -0.01000000
    endloop
  endfacet
  facet normal 0.00000000 0.00000000 -1.00000000
    outer loop
      vertex -0.01000000 -0.01000000 -0.01000000
      vertex -0.01000000 0.01000000 -0.01000000
      vertex 0.01000000 0.01000000 -0.01000000
    endloop
  endfacet
  facet normal 0.00000000 0.00000000 1.00000000
    outer loop
      vertex -0.01000000 -0.01000000 0.01000000
      vertex 0.01000000 -0.01000000 0.01000000
      vertex 0.01000000 0.01000000 0.01000000
    endloop
  endfacet
  facet normal 0.00000000 0.00000000 1.00000000
    outer loop
      vertex -0.01000000 -0.01000000 0.01000000
      vertex 0.01000000 0.01000000 0.01000000
      vertex -0.01000000 0.01000000 0.01000000
    endloop
  endfacet
  facet normal 0.00000000 -1.00000000 0.00000000
    outer loop
      vertex -0.01000000 -0.01000000 -0.01000000
      vertex 0.01000000 -0.01000000 -0.01000000
      vertex 0.01000000 -0.01000000 0.01000000
    endloop
  endfacet
  facet normal 0.00000000 -1.00000000 0.00000000
    outer loop
      vertex -0.01000000 -0.01000000 -0.01000000
      vertex 0.01000000 -0.01000000 0.01000000
      vertex -0.01000000 -0.01000000 0.01000000
    endloop
  endfacet
  facet normal 1.00000000 0.00000000 0.00000000
    outer loop
      vertex 0.01000000 -0.01000000 -0.01000000
      vertex 0.01000000 0.01000000 -0.01000000
      vertex 0.01000000 0.01000000 0.01000000
    endloop
  endfacet
  facet normal 1.00000000 0.00000000 0.00000000
    outer loop
      vertex 0.01000000 -0.01000000 -0.01000000
      vertex 0.01000000 0.01000000 0.01000000
      vertex 0.01000000 -0.01000000 0.01000000
    endloop
  endfacet
  facet normal 0.00000000 1.00000000 0.00000000
    outer loop
      vertex 0.01000000 0.01000000 -0.01000000
      vertex -0.01000000 0.01000000 -0.01000000
      vertex -0.01000000 0.01000000 0.01000000
    endloop
  endfacet
  facet normal 0.00000000 1.00000000 -0.00000000
    outer loop
      vertex 0.01000000 0.01000000 -0.01000000
      vertex -0.01000000 0.01000000 0.01000000
      vertex 0.01000000 0.01000000 0.01000000
    endloop
  endfacet
  facet normal -1.00000000 0.00000000 0.00000000
    outer loop
      vertex -0.01000000 0.01000000 -0.01000000
      vertex -0.01000000 -0.01000000 -0.01000000
      vertex -0.01000000 -0.01000000 0.01000000
    endloop
  endfacet
  facet normal -1.00000000 0.00000000 0.00000000
    outer loop
      vertex -0.01000000 0.01000000 -0.01000000
      vertex -0.01000000 -0.01000000 0.01000000
      vertex -0.01000000 0.01000000 0.01000000
    endloop
  endfacet
endsolid end_effector
