solid prop
  facet normal 0.00000000 0.00000000 -1.00000000
    outer loop
      vertex -0.03000000 -0.00300000 -0.00100000
      vertex 0.03000000 0.00300000 -0.00100000
      vertex 0.03000000 -0.00300000 -0.00100000
    endloop
  endfacet
  facet normal 0.00000000 0.00000000 -1.00000000
    outer loop
      vertex -0.03000000 -0.00300000 -0.00100000
      vertex -0.03000000 0.00300000 -0.00100000
      vertex 0.03000000 0.00300000 -0.00100000
    endloop
  endfacet
  facet normal 0.00000000 0.00000000 1.00000000
    outer loop
      vertex -0.03000000 -0.00300000 0.00100000
      vertex 0.03000000 -0.00300000 0.00100000
      vertex 0.03000000 0.00300000 0.00100000
    endloop
  endfacet
  facet normal 0.00000000 0.00000000 1.00000000
    outer loop
      vertex -0.03000000 -0.00300000 0.00100000
      vertex 0.03000000 0.00300000 0.00100000
      vertex -0.03000000 0.00300000 0.00100000
    endloop
  endfacet
  facet normal 0.00000000 -1.00000000 0.00000000
    outer loop
      vertex -0.03000000 -0.00300000 -0.00100000
      vertex 0.03000000 -0.00300000 -0.00100000
      vertex 0.03000000 -0.00300000 0.00100000
    endloop
  endfacet
  facet normal 0.00000000 -1.00000000 0.00000000
    outer loop
      vertex -0.03000000 -0.00300000 -0.00100000
      vertex 0.03000000 -0.00300000 0.00100000
      vertex -0.03000000 -0.00300000 0.00100000
    endloop
  endfacet
  facet normal 1.00000000 0.00000000 0.00000000
    outer loop
      vertex 0.03000000 -0.00300000 -0.00100000
      vertex 0.03000000 0.00300000 -0.00100000
      vertex 0.03000000 0.00300000 0.00100000
    endloop
  endfacet
  facet normal 1.00000000 0.00000000 0.00000000
    outer loop
      vertex 0.03000000 -0.00300000 -0.00100000
      vertex 0.03000000 0.00300000 0.00100000
      vertex 0.03000000 -0.00300000 0.00100000
    endloop
  endfacet
  facet normal 0.00000000 1.00000000 0.00000000
    outer loop
      vertex 0.03000000 0.00300000 -0.00100000
      vertex -0.03000000 0.00300000 -0.00100000
      vertex -0.03000000 0.00300000 0.00100000
    endloop
  endfacet
  facet normal 0.00000000 1.00000000 -0.00000000
    outer loop
      vertex 0.03000000 0.00300000 -0.00100000
      vertex -0.03000000 0.00300000 0.00100000
      vertex 0.03000000 0.00300000 0.00100000
    endloop
  endfacet
  facet normal -1.00000000 0.00000000 0.00000000
    outer loop
      vertex -0.03000000 0.00300000 -0.00100000
      vertex -0.03000000 -0.00300000 -0.00100000
      vertex -0.03000000 -0.00300000 0.00100000
    endloop
  endfacet
  facet normal -1.00000000 0.00000000 0.00000000
    outer loop
      vertex -0.03000000 0.00300000 -0.00100000
      vertex -0.03000000 -0.00300000 0.00100000
      vertex -0.03000000 0.00300000 0.00100000
    endloop
  endfacet
endsolid prop
